{
    "asset" : {
        "generator" : "Khronos glTF Blender I/O v1.1.45",
        "version" : "2.0"
    },
    "scene" : 0,
    "scenes" : [
        {
            "name" : "Scene",
            "nodes" : [
                0,
                1,
                2,
                3,
                4,
                5,
                6,
                7,
                8,
                9,
                10,
                11
            ]
        }
    ],
    "nodes" : [
        {
            "mesh" : 0,
            "name" : "player"
        },
        {
            "mesh" : 0,
            "name" : "player_2",
            "translation" : [
                3,
                -25,
                42.5
            ]
        },
        {
            "mesh" : 1,
            "name" : "room_1"
        },
        {
            "mesh" : 2,
            "name" : "room_2",
            "translation" : [
                0,
                1,
                0
            ]
        },
        {
            "mesh" : 3,
            "name" : "room_6",
            "translation" : [
                15,
                0,
                13
            ]
        },
        {
            "mesh" : 4,
            "name" : "room_3",
            "translation" : [
                0,
                1,
                0
            ]
        },
        {
            "mesh" : 5,
            "name" : "room_4",
            "translation" : [
                0,
                1,
                0
            ]
        },
        {
            "mesh" : 6,
            "name" : "room_5",
            "translation" : [
                0,
                1,
                0
            ]
        },
        {
            "mesh" : 7,
            "name" : "ladder_1",
            "translation" : [
                4.200000286102295,
                0,
                42.20000076293945
            ]
        },
        {
            "mesh" : 8,
            "name" : "ladder_1_end",
            "translation" : [
                4.200000286102295,
                0,
                42.20000076293945
            ]
        },
        {
            "mesh" : 9,
            "name" : "ladder_2",
            "rotation" : [
                0,
                1,
                0,
                -1.6292068494294654e-07
            ],
            "translation" : [
                1.8000000715255737,
                0,
                47.79999923706055
            ]
        },
        {
            "mesh" : 8,
            "name" : "ladder_2_end",
            "rotation" : [
                0,
                1,
                0,
                -1.6292068494294654e-07
            ],
            "translation" : [
                1.8000000715255737,
                0,
                47.79999923706055
            ]
        }
    ],
    "meshes" : [
        {
            "name" : "player",
            "primitives" : [
                {
                    "attributes" : {
                        "POSITION" : 0,
                        "NORMAL" : 1,
                        "TEXCOORD_0" : 2
                    },
                    "indices" : 3
                }
            ]
        },
        {
            "name" : "room_1",
            "primitives" : [
                {
                    "attributes" : {
                        "POSITION" : 4,
                        "NORMAL" : 5,
                        "TEXCOORD_0" : 6
                    },
                    "indices" : 7
                }
            ]
        },
        {
            "name" : "room_2",
            "primitives" : [
                {
                    "attributes" : {
                        "POSITION" : 8,
                        "NORMAL" : 9,
                        "TEXCOORD_0" : 10
                    },
                    "indices" : 11
                }
            ]
        },
        {
            "name" : "room_6",
            "primitives" : [
                {
                    "attributes" : {
                        "POSITION" : 12,
                        "NORMAL" : 13,
                        "TEXCOORD_0" : 14
                    },
                    "indices" : 15
                }
            ]
        },
        {
            "name" : "room_3",
            "primitives" : [
                {
                    "attributes" : {
                        "POSITION" : 16,
                        "NORMAL" : 17,
                        "TEXCOORD_0" : 18
                    },
                    "indices" : 19
                }
            ]
        },
        {
            "name" : "room_4",
            "primitives" : [
                {
                    "attributes" : {
                        "POSITION" : 20,
                        "NORMAL" : 21,
                        "TEXCOORD_0" : 22
                    },
                    "indices" : 23
                }
            ]
        },
        {
            "name" : "room_5",
            "primitives" : [
                {
                    "attributes" : {
                        "POSITION" : 24,
                        "NORMAL" : 25,
                        "TEXCOORD_0" : 26
                    },
                    "indices" : 27
                }
            ]
        },
        {
            "name" : "ladder",
            "primitives" : [
                {
                    "attributes" : {
                        "POSITION" : 28,
                        "NORMAL" : 29,
                        "TEXCOORD_0" : 30
                    },
                    "indices" : 31
                }
            ]
        },
        {
            "name" : "ladder_1_end",
            "primitives" : [
                {
                    "attributes" : {
                        "POSITION" : 32,
                        "NORMAL" : 33,
                        "TEXCOORD_0" : 34
                    },
                    "indices" : 35
                }
            ]
        },
        {
            "name" : "ladder",
            "primitives" : [
                {
                    "attributes" : {
                        "POSITION" : 36,
                        "NORMAL" : 37,
                        "TEXCOORD_0" : 38
                    },
                    "indices" : 31
                }
            ]
        }
    ],
    "accessors" : [
        {
            "bufferView" : 0,
            "componentType" : 5126,
            "count" : 22978,
            "max" : [
                0.24407516419887543,
                1.7831377983093262,
                0.28346550464630127
            ],
            "min" : [
                -0.4240168631076813,
                -7.356373680522665e-05,
                -0.0933312326669693
            ],
            "type" : "VEC3"
        },
        {
            "bufferView" : 1,
            "componentType" : 5126,
            "count" : 22978,
            "type" : "VEC3"
        },
        {
            "bufferView" : 2,
            "componentType" : 5126,
            "count" : 22978,
            "type" : "VEC2"
        },
        {
            "bufferView" : 3,
            "componentType" : 5123,
            "count" : 103440,
            "type" : "SCALAR"
        },
        {
            "bufferView" : 4,
            "componentType" : 5126,
            "count" : 44,
            "max" : [
                2,
                4,
                5
            ],
            "min" : [
                -2,
                0,
                -5
            ],
            "type" : "VEC3"
        },
        {
            "bufferView" : 5,
            "componentType" : 5126,
            "count" : 44,
            "type" : "VEC3"
        },
        {
            "bufferView" : 6,
            "componentType" : 5126,
            "count" : 44,
            "type" : "VEC2"
        },
        {
            "bufferView" : 7,
            "componentType" : 5123,
            "count" : 78,
            "type" : "SCALAR"
        },
        {
            "bufferView" : 8,
            "componentType" : 5126,
            "count" : 159,
            "max" : [
                14,
                8,
                40
            ],
            "min" : [
                -10,
                -1,
                5
            ],
            "type" : "VEC3"
        },
        {
            "bufferView" : 9,
            "componentType" : 5126,
            "count" : 159,
            "type" : "VEC3"
        },
        {
            "bufferView" : 10,
            "componentType" : 5126,
            "count" : 159,
            "type" : "VEC2"
        },
        {
            "bufferView" : 11,
            "componentType" : 5123,
            "count" : 297,
            "type" : "SCALAR"
        },
        {
            "bufferView" : 12,
            "componentType" : 5126,
            "count" : 222,
            "max" : [
                27,
                5,
                9.5
            ],
            "min" : [
                -1,
                0,
                -11
            ],
            "type" : "VEC3"
        },
        {
            "bufferView" : 13,
            "componentType" : 5126,
            "count" : 222,
            "type" : "VEC3"
        },
        {
            "bufferView" : 14,
            "componentType" : 5126,
            "count" : 222,
            "type" : "VEC2"
        },
        {
            "bufferView" : 15,
            "componentType" : 5123,
            "count" : 354,
            "type" : "SCALAR"
        },
        {
            "bufferView" : 16,
            "componentType" : 5126,
            "count" : 62,
            "max" : [
                10,
                8,
                40
            ],
            "min" : [
                -5,
                3.5,
                33
            ],
            "type" : "VEC3"
        },
        {
            "bufferView" : 17,
            "componentType" : 5126,
            "count" : 62,
            "type" : "VEC3"
        },
        {
            "bufferView" : 18,
            "componentType" : 5126,
            "count" : 62,
            "type" : "VEC2"
        },
        {
            "bufferView" : 19,
            "componentType" : 5123,
            "count" : 132,
            "type" : "SCALAR"
        },
        {
            "bufferView" : 20,
            "componentType" : 5126,
            "count" : 90,
            "max" : [
                6,
                8,
                50
            ],
            "min" : [
                0,
                -26,
                40
            ],
            "type" : "VEC3"
        },
        {
            "bufferView" : 21,
            "componentType" : 5126,
            "count" : 90,
            "type" : "VEC3"
        },
        {
            "bufferView" : 22,
            "componentType" : 5126,
            "count" : 90,
            "type" : "VEC2"
        },
        {
            "bufferView" : 23,
            "componentType" : 5123,
            "count" : 162,
            "type" : "SCALAR"
        },
        {
            "bufferView" : 24,
            "componentType" : 5126,
            "count" : 120,
            "max" : [
                45,
                3.5,
                55
            ],
            "min" : [
                0,
                -6,
                22.5
            ],
            "type" : "VEC3"
        },
        {
            "bufferView" : 25,
            "componentType" : 5126,
            "count" : 120,
            "type" : "VEC3"
        },
        {
            "bufferView" : 26,
            "componentType" : 5126,
            "count" : 120,
            "type" : "VEC2"
        },
        {
            "bufferView" : 27,
            "componentType" : 5123,
            "count" : 264,
            "type" : "SCALAR"
        },
        {
            "bufferView" : 28,
            "componentType" : 5126,
            "count" : 4536,
            "max" : [
                0.550000011920929,
                0.20001602172851562,
                0.05000003054738045
            ],
            "min" : [
                -0.050000011920928955,
                -25,
                -0.05000003054738045
            ],
            "type" : "VEC3"
        },
        {
            "bufferView" : 29,
            "componentType" : 5126,
            "count" : 4536,
            "type" : "VEC3"
        },
        {
            "bufferView" : 30,
            "componentType" : 5126,
            "count" : 4536,
            "type" : "VEC2"
        },
        {
            "bufferView" : 31,
            "componentType" : 5123,
            "count" : 23688,
            "type" : "SCALAR"
        },
        {
            "bufferView" : 32,
            "componentType" : 5126,
            "count" : 128,
            "max" : [
                0.550000011920929,
                0.45000001788139343,
                0.04999999701976776
            ],
            "min" : [
                -0.05000004172325134,
                0,
                -0.4500015377998352
            ],
            "type" : "VEC3"
        },
        {
            "bufferView" : 33,
            "componentType" : 5126,
            "count" : 128,
            "type" : "VEC3"
        },
        {
            "bufferView" : 34,
            "componentType" : 5126,
            "count" : 128,
            "type" : "VEC2"
        },
        {
            "bufferView" : 35,
            "componentType" : 5123,
            "count" : 672,
            "type" : "SCALAR"
        },
        {
            "bufferView" : 36,
            "componentType" : 5126,
            "count" : 4536,
            "max" : [
                0.550000011920929,
                0.20001602172851562,
                0.05000003054738045
            ],
            "min" : [
                -0.050000011920928955,
                -25,
                -0.05000003054738045
            ],
            "type" : "VEC3"
        },
        {
            "bufferView" : 37,
            "componentType" : 5126,
            "count" : 4536,
            "type" : "VEC3"
        },
        {
            "bufferView" : 38,
            "componentType" : 5126,
            "count" : 4536,
            "type" : "VEC2"
        }
    ],
    "bufferViews" : [
        {
            "buffer" : 0,
            "byteLength" : 275736,
            "byteOffset" : 0
        },
        {
            "buffer" : 0,
            "byteLength" : 275736,
            "byteOffset" : 275736
        },
        {
            "buffer" : 0,
            "byteLength" : 183824,
            "byteOffset" : 551472
        },
        {
            "buffer" : 0,
            "byteLength" : 206880,
            "byteOffset" : 735296
        },
        {
            "buffer" : 0,
            "byteLength" : 528,
            "byteOffset" : 942176
        },
        {
            "buffer" : 0,
            "byteLength" : 528,
            "byteOffset" : 942704
        },
        {
            "buffer" : 0,
            "byteLength" : 352,
            "byteOffset" : 943232
        },
        {
            "buffer" : 0,
            "byteLength" : 156,
            "byteOffset" : 943584
        },
        {
            "buffer" : 0,
            "byteLength" : 1908,
            "byteOffset" : 943740
        },
        {
            "buffer" : 0,
            "byteLength" : 1908,
            "byteOffset" : 945648
        },
        {
            "buffer" : 0,
            "byteLength" : 1272,
            "byteOffset" : 947556
        },
        {
            "buffer" : 0,
            "byteLength" : 594,
            "byteOffset" : 948828
        },
        {
            "buffer" : 0,
            "byteLength" : 2664,
            "byteOffset" : 949424
        },
        {
            "buffer" : 0,
            "byteLength" : 2664,
            "byteOffset" : 952088
        },
        {
            "buffer" : 0,
            "byteLength" : 1776,
            "byteOffset" : 954752
        },
        {
            "buffer" : 0,
            "byteLength" : 708,
            "byteOffset" : 956528
        },
        {
            "buffer" : 0,
            "byteLength" : 744,
            "byteOffset" : 957236
        },
        {
            "buffer" : 0,
            "byteLength" : 744,
            "byteOffset" : 957980
        },
        {
            "buffer" : 0,
            "byteLength" : 496,
            "byteOffset" : 958724
        },
        {
            "buffer" : 0,
            "byteLength" : 264,
            "byteOffset" : 959220
        },
        {
            "buffer" : 0,
            "byteLength" : 1080,
            "byteOffset" : 959484
        },
        {
            "buffer" : 0,
            "byteLength" : 1080,
            "byteOffset" : 960564
        },
        {
            "buffer" : 0,
            "byteLength" : 720,
            "byteOffset" : 961644
        },
        {
            "buffer" : 0,
            "byteLength" : 324,
            "byteOffset" : 962364
        },
        {
            "buffer" : 0,
            "byteLength" : 1440,
            "byteOffset" : 962688
        },
        {
            "buffer" : 0,
            "byteLength" : 1440,
            "byteOffset" : 964128
        },
        {
            "buffer" : 0,
            "byteLength" : 960,
            "byteOffset" : 965568
        },
        {
            "buffer" : 0,
            "byteLength" : 528,
            "byteOffset" : 966528
        },
        {
            "buffer" : 0,
            "byteLength" : 54432,
            "byteOffset" : 967056
        },
        {
            "buffer" : 0,
            "byteLength" : 54432,
            "byteOffset" : 1021488
        },
        {
            "buffer" : 0,
            "byteLength" : 36288,
            "byteOffset" : 1075920
        },
        {
            "buffer" : 0,
            "byteLength" : 47376,
            "byteOffset" : 1112208
        },
        {
            "buffer" : 0,
            "byteLength" : 1536,
            "byteOffset" : 1159584
        },
        {
            "buffer" : 0,
            "byteLength" : 1536,
            "byteOffset" : 1161120
        },
        {
            "buffer" : 0,
            "byteLength" : 1024,
            "byteOffset" : 1162656
        },
        {
            "buffer" : 0,
            "byteLength" : 1344,
            "byteOffset" : 1163680
        },
        {
            "buffer" : 0,
            "byteLength" : 54432,
            "byteOffset" : 1165024
        },
        {
            "buffer" : 0,
            "byteLength" : 54432,
            "byteOffset" : 1219456
        },
        {
            "buffer" : 0,
            "byteLength" : 36288,
            "byteOffset" : 1273888
        }
    ],
    "buffers" : [
        {
            "byteLength" : 1310176,
            "uri" : "data:application/octet-stream;base64,"
        }
    ]
}
